
<?xml version="1.0" encoding="iso-8859-1"?>
<!-- Generator: Adobe Illustrator 18.0.0, SVG Export Plug-In . SVG Version: 6.00 Build 0)  -->
<!DOCTYPE svg PUBLIC "-//W3C//DTD SVG 1.1//EN" "http://www.w3.org/Graphics/SVG/1.1/DTD/svg11.dtd">
<svg version="1.1" id="Capa_1" xmlns="http://www.w3.org/2000/svg" xmlns:xlink="http://www.w3.org/1999/xlink" x="0px" y="0px"
	 viewBox="0 0 395 395" style="enable-background:new 0 0 395 395;" xml:space="preserve">
<g>
	<path d="M313.002,0H82C36.785,0,0,36.784,0,81.998v230.993C0,358.211,36.785,395,82,395h231.002
		C358.216,395,395,358.211,395,312.991V81.998C395,36.784,358.216,0,313.002,0z M380,312.991C380,349.94,349.944,380,313.002,380H82
		c-36.944,0-67-30.06-67-67.009V81.998C15,45.056,45.056,15,82,15h231.002C349.944,15,380,45.056,380,81.998V312.991z"/>
	<path d="M121.333,224.734h76.16c2.945,0,5.333-2.388,5.333-5.333V54.086c0-2.505-1.744-4.673-4.191-5.209
		c-2.45-0.536-4.938,0.702-5.986,2.978l-76.16,165.315c-0.761,1.651-0.628,3.576,0.352,5.107
		C117.822,223.808,119.515,224.734,121.333,224.734z"/>
	<path d="M221.418,224.734h76.16c1.434,0,2.807-0.577,3.81-1.602c1.003-1.023,1.552-2.408,1.522-3.842
		c-0.018-0.84-0.539-20.884-10.476-47.027c-9.158-24.096-28.417-58.12-68.156-83.372c-1.645-1.043-3.725-1.11-5.428-0.173
		c-1.706,0.936-2.766,2.729-2.766,4.674v126.009C216.085,222.347,218.473,224.734,221.418,224.734z"/>
	<path d="M112.574,277.707c22.759,8.781,52.919,13.618,84.926,13.618s62.167-4.837,84.926-13.618
		c24.166-9.325,37.475-22.284,37.475-36.489c0-2.586-2.096-4.682-4.682-4.682H79.781c-2.586,0-4.682,2.096-4.682,4.682
		C75.1,255.423,88.408,268.382,112.574,277.707z"/>
	<path d="M280.831,330.013c-6.99,0-9.854-1.997-14.598-5.307c-5.582-3.896-13.227-9.229-27.071-9.229
		c-13.843,0-21.487,5.334-27.069,9.229c-4.744,3.309-7.607,5.308-14.599,5.308c-6.988,0-9.852-1.997-14.594-5.307
		c-5.582-3.895-13.227-9.229-27.07-9.229c-13.844,0-21.488,5.335-27.07,9.229c-4.742,3.31-7.605,5.307-14.594,5.307
		c-6.989,0-9.853-1.997-14.595-5.307c-5.583-3.895-13.227-9.229-27.071-9.229v21.803c6.989,0,9.853,1.997,14.595,5.307
		c5.583,3.895,13.228,9.229,27.071,9.229c13.844,0,21.488-5.335,27.07-9.229c4.742-3.31,7.605-5.307,14.594-5.307
		c6.988,0,9.852,1.997,14.594,5.307c5.582,3.895,13.227,9.229,27.07,9.229c13.846,0,21.491-5.335,27.074-9.229
		c4.742-3.31,7.605-5.307,14.594-5.307c6.99,0,9.853,1.997,14.597,5.307c5.582,3.896,13.227,9.229,27.072,9.229
		c13.844,0,21.489-5.334,27.071-9.229c4.744-3.31,7.607-5.307,14.598-5.307v-21.803c-13.845,0-21.49,5.334-27.072,9.229
		C290.684,328.016,287.821,330.013,280.831,330.013z"/>
</g>
</svg>
